<?xml version="1.0" encoding="UTF-8"?>
<svg version="1.1" viewBox="0 0 900 900" width="225" height="225" xmlns="http://www.w3.org/2000/svg">
<path transform="translate(0)" d="m0 0h900v900h-900z" fill="#FEFEFE"/>
<path transform="translate(0)" d="m0 0h900v900h-900zm444 81-32 2-36 6-28 7-24 8-22 9-17 8-23 13-17 11-14 10-10 8-15 13-12 11-11 11-9 11-9 10-14 19-10 15-9 15-14 27-8 19-9 25-7 26-5 25-3 23-2 25v23l3 35 5 31 8 31 10 28 13 29 12 22 12 19 14 19 9 11 11 13 14 15 12 11 22 18 18 13 19 12 28 15 23 10 22 8 28 8 26 5 23 3 14 1h46l23-2 30-5 28-7 24-8 29-12 25-13 16-10 15-10 13-10 14-11 17-16 17-17 7-8 10-12 13-18 11-17 12-21 12-25 10-26 7-23 6-26 5-31 1-14v-50l-2-21-4-26-7-30-11-33-11-25-12-23-11-18-8-12-12-16-9-11-11-12-7-8-8-8-8-7-11-10-17-13-27-18-21-12-25-12-31-12-29-8-31-6-15-2-34-2z" fill="#FEFEFE"/>
<path transform="translate(444,81)" d="m0 0h15l34 2 27 4 27 6 24 7 28 11 29 14 22 13 22 15 14 11 14 12 17 16 14 15 9 11 10 13 11 16 11 18 12 22 9 19 9 24 7 23 7 31 4 27 1 15v50l-2 20-5 30-8 32-8 23-11 26-14 27-12 19-9 13-10 13-8 10-16 17-17 17-8 7-16 13-18 13-18 11-17 10-23 11-31 12-28 8-24 5-28 4-14 1h-46l-31-3-23-4-24-6-30-10-21-9-17-8-23-13-17-11-16-12-10-8-15-13-13-12-13-14-9-11-14-18-14-21-11-19-9-17-12-28-10-30-6-24-5-31-3-35v-23l3-35 5-30 7-27 9-27 11-26 10-20 10-17 10-15 13-18 13-15 9-11 18-18 11-9 11-10 18-13 20-13 18-10 16-8 15-7 27-10 25-7 29-6 20-3zm-16 30-28 3-25 5-19 5-24 8-23 10-22 11-24 15-15 11-12 10-10 8-16 15-12 13-9 11-13 17-10 15-9 15-13 25-11 27-8 25-5 21-4 23-3 30v30l3 31 4 24 6 24 10 30 13 29 12 22 16 24 10 13 11 13 11 12 17 17 22 18 17 12 21 13 25 13 27 11 26 8 20 5 24 4 20 2h50l26-3 35-7 29-9 24-10 16-8 17-9 19-12 12-9 13-10 11-10 8-7 18-18 7-8 8-10 11-15 10-15 12-21 13-27 9-25 7-24 5-24 3-20 1-15v-47l-2-22-4-23-7-28-9-26-10-23-10-20-13-21-12-17-13-16-12-13-10-11-8-7-12-11-17-13-19-13-24-14-23-11-24-9-31-9-27-5-25-3z" fill="#020202"/>
<path transform="translate(409,271)" d="m0 0 5 3 7 8 9 8-2 5-8 7-131 131-1 2h356l1 1v13l-1 15h-356l1 3 8 7 128 128v2l4 2 1 3-17 17-1 2-4-1-174-174-3-2 2-4 3-3h2l2-4h2l2-4z" fill="#020202"/>
</svg>
