<?xml version="1.0" encoding="utf-8"?>
<!DOCTYPE svg PUBLIC "-//W3C//DTD SVG 1.0//EN" "http://www.w3.org/TR/2001/REC-SVG-20010904/DTD/svg10.dtd">
<svg version="1.0" xmlns="http://www.w3.org/2000/svg" width="639px" height="320px" viewBox="0 0 639 320" preserveAspectRatio="xMidYMid meet">
 <g fill="#006633">
  <path d="M0 181.75 l0 -138.25 1.75 0 c0.95 0 1.75 0.25 1.75 0.50 0 0.30 0.40 0.50 0.90 0.50 0.50 0 1.20 0.45 1.60 1 0.40 0.55 1.05 1 1.40 1 0.40 0 1.35 0.70 2.10 1.50 0.75 0.85 1.70 1.50 2.10 1.50 0.35 0 1 0.45 1.40 1 0.40 0.55 1.05 1 1.40 1 0.40 0 1.35 0.70 2.10 1.50 0.75 0.85 1.65 1.50 2 1.50 0.35 0 1.25 0.70 2 1.50 0.75 0.85 1.70 1.50 2.10 1.50 0.35 0 1 0.45 1.40 1 0.40 0.55 1.05 1 1.40 1 0.40 0 1.35 0.70 2.10 1.50 0.75 0.85 1.70 1.50 2.10 1.50 0.35 0 1 0.45 1.40 1 0.40 0.55 1.05 1 1.40 1 0.40 0 1.35 0.70 2.10 1.50 0.75 0.85 1.65 1.50 2 1.50 0.35 0 1.25 0.70 2 1.50 0.75 0.85 1.70 1.50 2.10 1.50 0.35 0 1 0.45 1.40 1 0.40 0.55 1.05 1 1.40 1 0.40 0 1.35 0.70 2.10 1.50 0.75 0.85 1.70 1.50 2.10 1.50 0.35 0 1 0.45 1.40 1 0.40 0.55 1.05 1 1.40 1 0.40 0 1.35 0.70 2.10 1.50 0.75 0.85 1.65 1.50 2 1.50 0.35 0 1.25 0.70 2 1.50 0.75 0.85 1.70 1.50 2.10 1.50 0.35 0 1 0.45 1.40 1 0.40 0.55 1.05 1 1.40 1 0.40 0 1.35 0.70 2.10 1.50 0.75 0.85 1.65 1.50 2 1.50 0.35 0 1.25 0.70 2 1.50 0.75 0.85 1.70 1.50 2.10 1.50 0.35 0 1 0.45 1.40 1 0.40 0.55 1.05 1 1.40 1 0.40 0 1.35 0.70 2.10 1.50 0.75 0.85 1.70 1.50 2.10 1.50 0.35 0 1 0.45 1.40 1 0.40 0.55 1.05 1 1.40 1 0.40 0 1.35 0.70 2.10 1.50 0.75 0.85 1.65 1.50 2 1.50 0.35 0 1.25 0.70 2 1.50 0.75 0.85 1.70 1.50 2.10 1.50 0.35 0 1 0.45 1.40 1 0.40 0.55 1.05 1 1.40 1 0.40 0 1.35 0.70 2.10 1.50 0.75 0.85 1.70 1.50 2.10 1.50 0.35 0 1 0.45 1.40 1 0.40 0.55 1.05 1 1.40 1 0.40 0 1.35 0.70 2.10 1.50 0.75 0.85 1.70 1.50 2.10 1.50 0.35 0 1 0.45 1.40 1 0.40 0.55 1.05 1 1.50 1 0.45 0 1.10 0.45 1.50 1 0.40 0.55 1.05 1 1.50 1 0.45 0 1.10 0.45 1.50 1 0.40 0.55 1.05 1 1.50 1 0.45 0 1.10 0.45 1.50 1 0.40 0.55 1.05 1 1.50 1 0.45 0 1.10 0.45 1.50 1 0.40 0.55 1.05 1 1.40 1 0.40 0 1.35 0.70 2.10 1.50 0.75 0.85 1.70 1.50 2.10 1.50 0.35 0 1 0.45 1.40 1 0.40 0.55 1.05 1 1.50 1 0.45 0 1.10 0.45 1.50 1 0.40 0.55 1.10 1 1.60 1 0.50 0 0.90 0.25 0.90 0.50 0 0.30 0.40 0.50 0.90 0.50 0.50 0 1.20 0.45 1.60 1 0.40 0.55 1.10 1 1.60 1 0.50 0 0.90 0.25 0.90 0.50 0 0.30 0.40 0.50 0.90 0.50 0.50 0 1.20 0.45 1.60 1 0.40 0.55 1.10 1 1.60 1 0.50 0 0.90 0.25 0.90 0.50 0 0.30 0.40 0.50 0.90 0.50 0.50 0 1.20 0.45 1.60 1 0.40 0.55 1.10 1 1.60 1 0.50 0 0.90 0.25 0.90 0.50 0 0.30 0.40 0.50 0.90 0.50 0.50 0 1.20 0.45 1.60 1 0.40 0.55 1.05 1 1.50 1 0.45 0 1.10 0.45 1.50 1 0.40 0.55 1.10 1 1.60 1 0.50 0 0.90 0.25 0.90 0.50 0 0.30 0.45 0.50 1 0.50 0.55 0 1 0.25 1 0.50 0 0.30 0.45 0.50 1 0.50 0.55 0 1 0.25 1 0.50 0 0.30 0.45 0.50 1 0.50 0.55 0 1 0.25 1 0.50 0 0.30 0.40 0.50 0.90 0.50 0.50 0 1.20 0.45 1.60 1 0.40 0.55 1.10 1 1.60 1 0.50 0 0.90 0.25 0.90 0.50 0 0.30 0.45 0.50 1 0.50 0.55 0 1 0.25 1 0.50 0 0.30 0.45 0.50 1 0.50 0.55 0 1 0.25 1 0.50 0 0.30 0.45 0.50 1 0.50 0.55 0 1 0.25 1 0.50 0 0.30 0.45 0.50 1 0.50 0.55 0 1 0.25 1 0.50 0 0.30 0.45 0.50 1 0.50 0.55 0 1 0.25 1 0.50 0 0.30 0.40 0.50 0.90 0.50 0.50 0 1.20 0.45 1.60 1 0.40 0.55 1.10 1 1.60 1 0.50 0 0.90 0.25 0.90 0.50 0 0.30 0.45 0.50 1 0.50 0.55 0 1 0.25 1 0.50 0 0.30 0.45 0.50 1 0.50 0.55 0 1 0.25 1 0.50 0 0.30 0.45 0.50 1 0.50 0.55 0 1 0.25 1 0.50 0 0.30 0.70 0.50 1.50 0.50 0.85 0 1.50 0.25 1.50 0.50 0 0.30 0.45 0.50 1 0.50 0.55 0 1 0.25 1 0.50 0 0.30 0.45 0.50 1 0.50 0.55 0 1 0.25 1 0.50 0 0.30 0.45 0.50 1 0.50 0.55 0 1 0.25 1 0.50 0 0.30 0.45 0.50 1 0.50 0.55 0 1 0.25 1 0.50 0 0.30 0.45 0.50 1 0.50 0.55 0 1 0.25 1 0.50 0 0.30 0.45 0.50 1 0.50 0.55 0 1 0.25 1 0.50 0 0.30 0.70 0.50 1.50 0.50 0.85 0 1.50 0.25 1.50 0.50 0 0.30 0.45 0.50 1 0.50 0.55 0 1 0.25 1 0.50 0 0.30 0.45 0.50 1 0.50 0.55 0 1 0.25 1 0.50 0 0.30 0.45 0.50 1 0.50 0.55 0 1 0.25 1 0.50 0 0.30 0.70 0.50 1.50 0.50 0.85 0 1.50 0.25 1.50 0.50 0 0.30 0.70 0.50 1.50 0.50 0.85 0 1.50 0.25 1.50 0.50 0 0.30 0.70 0.50 1.50 0.50 0.85 0 1.50 0.25 1.50 0.50 0 0.30 0.70 0.50 1.50 0.50 0.85 0 1.50 0.25 1.50 0.50 0 0.30 0.45 0.50 1 0.50 0.55 0 1 0.25 1 0.50 0 0.30 0.70 0.50 1.50 0.50 0.85 0 1.50 0.25 1.50 0.50 0 0.30 0.70 0.50 1.50 0.50 0.85 0 1.50 0.25 1.50 0.50 0 0.30 0.70 0.50 1.50 0.50 0.85 0 1.50 0.25 1.50 0.50 0 0.30 0.70 0.50 1.50 0.50 0.85 0 1.50 0.25 1.50 0.50 0 0.30 0.70 0.50 1.50 0.50 0.85 0 1.50 0.25 1.50 0.50 0 0.30 0.90 0.50 2 0.50 1.10 0 2 0.25 2 0.50 0 0.30 1.15 0.50 2.50 0.50 1.40 0 2.50 0.25 2.50 0.50 0 0.30 1.15 0.50 2.50 0.50 1.40 0 2.50 0.25 2.50 0.50 0 0.30 1.15 0.50 2.50 0.50 1.40 0 2.50 0.25 2.50 0.50 0 0.30 1.35 0.50 3 0.50 1.65 0 3 0.20 3 0.50 0 0.30 1.15 0.50 2.50 0.50 1.40 0 2.50 0.25 2.50 0.50 0 0.30 2.35 0.50 6 0.50 3.65 0 6 0.20 6 0.50 0 0.30 3.15 0.50 8.50 0.50 5.35 0 8.50 0.20 8.50 0.50 0 0.30 3 0.50 8 0.50 5 0 8 0.20 8 0.50 0 0.30 0.45 0.50 1 0.50 1 0 1 0.35 1 63.25 l0 63.25 -156.25 0 -156.25 0 0 -138.25z"/>
  <path d="M326.50 256.75 l0 -63.25 1.50 0 c0.85 0 1.50 -0.20 1.50 -0.50 0 -0.30 3 -0.50 8 -0.50 5 0 8 -0.20 8 -0.50 0 -0.30 3 -0.50 8 -0.50 5 0 8 -0.20 8 -0.50 0 -0.30 2.50 -0.50 6.50 -0.50 4 0 6.50 -0.20 6.50 -0.50 0 -0.25 1.15 -0.50 2.50 -0.50 1.40 0 2.50 -0.20 2.50 -0.50 0 -0.25 1.15 -0.50 2.50 -0.50 1.40 0 2.50 -0.20 2.50 -0.50 0 -0.25 1.15 -0.50 2.50 -0.50 1.40 0 2.50 -0.20 2.50 -0.50 0 -0.25 1.15 -0.50 2.50 -0.50 1.40 0 2.50 -0.20 2.50 -0.50 0 -0.25 1.15 -0.50 2.50 -0.50 1.40 0 2.50 -0.20 2.50 -0.50 0 -0.25 1.15 -0.50 2.50 -0.50 1.40 0 2.50 -0.20 2.50 -0.50 0 -0.25 0.70 -0.50 1.50 -0.50 0.85 0 1.50 -0.20 1.50 -0.50 0 -0.25 0.70 -0.50 1.50 -0.50 0.85 0 1.50 -0.20 1.50 -0.50 0 -0.25 0.45 -0.50 1 -0.50 0.55 0 1 -0.20 1 -0.50 0 -0.25 0.70 -0.50 1.50 -0.50 0.85 0 1.50 -0.20 1.50 -0.50 0 -0.25 0.70 -0.50 1.50 -0.50 0.85 0 1.50 -0.20 1.50 -0.50 0 -0.25 0.70 -0.50 1.50 -0.50 0.85 0 1.50 -0.20 1.50 -0.50 0 -0.25 0.70 -0.50 1.50 -0.50 0.85 0 1.50 -0.20 1.50 -0.50 0 -0.25 0.70 -0.50 1.50 -0.50 0.85 0 1.50 -0.20 1.50 -0.50 0 -0.25 0.70 -0.50 1.50 -0.50 0.85 0 1.50 -0.20 1.50 -0.50 0 -0.25 0.45 -0.50 1 -0.50 0.55 0 1 -0.20 1 -0.50 0 -0.25 0.70 -0.50 1.50 -0.50 0.85 0 1.50 -0.20 1.50 -0.50 0 -0.25 0.45 -0.50 1 -0.50 0.55 0 1 -0.20 1 -0.50 0 -0.25 0.45 -0.50 1 -0.50 0.55 0 1 -0.20 1 -0.50 0 -0.25 0.45 -0.50 1 -0.50 0.55 0 1 -0.20 1 -0.50 0 -0.25 0.45 -0.50 1 -0.50 0.55 0 1 -0.20 1 -0.50 0 -0.25 0.45 -0.50 1 -0.50 0.55 0 1 -0.20 1 -0.50 0 -0.25 0.45 -0.50 1 -0.50 0.55 0 1 -0.20 1 -0.50 0 -0.25 0.70 -0.50 1.50 -0.50 0.85 0 1.50 -0.20 1.50 -0.50 0 -0.25 0.45 -0.50 1 -0.50 0.55 0 1 -0.20 1 -0.50 0 -0.25 0.45 -0.50 1 -0.50 0.55 0 1 -0.20 1 -0.50 0 -0.25 0.45 -0.50 1 -0.50 0.55 0 1 -0.20 1 -0.50 0 -0.25 0.45 -0.50 1 -0.50 0.55 0 1 -0.20 1 -0.50 0 -0.25 0.45 -0.50 1 -0.50 0.55 0 1 -0.20 1 -0.50 0 -0.25 0.45 -0.50 1 -0.50 0.55 0 1 -0.20 1 -0.50 0 -0.25 0.45 -0.50 1 -0.50 0.55 0 1 -0.20 1 -0.50 0 -0.25 0.45 -0.50 1 -0.50 0.55 0 1 -0.20 1 -0.50 0 -0.25 0.45 -0.50 1 -0.50 0.55 0 1 -0.20 1 -0.50 0 -0.25 0.45 -0.50 1 -0.50 0.55 0 1 -0.20 1 -0.50 0 -0.25 0.40 -0.50 0.90 -0.50 0.50 0 1.20 -0.45 1.60 -1 0.40 -0.55 1.10 -1 1.60 -1 0.50 0 0.90 -0.20 0.90 -0.50 0 -0.25 0.45 -0.50 1 -0.50 0.55 0 1 -0.20 1 -0.50 0 -0.25 0.45 -0.50 1 -0.50 0.55 0 1 -0.20 1 -0.50 0 -0.25 0.45 -0.50 1 -0.50 0.55 0 1 -0.20 1 -0.50 0 -0.25 0.45 -0.50 1 -0.50 0.55 0 1 -0.20 1 -0.50 0 -0.25 0.45 -0.50 1 -0.50 0.55 0 1 -0.20 1 -0.50 0 -0.25 0.40 -0.50 0.90 -0.50 0.50 0 1.20 -0.45 1.60 -1 0.40 -0.55 1.10 -1 1.60 -1 0.50 0 0.90 -0.20 0.90 -0.50 0 -0.25 0.40 -0.50 0.90 -0.50 0.50 0 1.20 -0.45 1.60 -1 0.40 -0.55 1.10 -1 1.60 -1 0.50 0 0.90 -0.20 0.90 -0.50 0 -0.25 0.40 -0.50 0.90 -0.50 0.50 0 1.20 -0.45 1.60 -1 0.40 -0.55 1.10 -1 1.60 -1 0.50 0 0.90 -0.20 0.90 -0.50 0 -0.25 0.40 -0.50 0.90 -0.50 0.50 0 1.20 -0.45 1.60 -1 0.40 -0.55 1.10 -1 1.60 -1 0.50 0 0.90 -0.20 0.90 -0.50 0 -0.25 0.40 -0.50 0.90 -0.50 0.50 0 1.20 -0.45 1.60 -1 0.40 -0.55 1.05 -1 1.50 -1 0.45 0 1.10 -0.45 1.50 -1 0.40 -0.55 1.10 -1 1.60 -1 0.50 0 0.90 -0.20 0.90 -0.50 0 -0.25 0.40 -0.50 0.90 -0.50 0.50 0 1.20 -0.45 1.60 -1 0.40 -0.55 1.05 -1 1.40 -1 0.40 0 1.35 -0.65 2.10 -1.50 0.75 -0.80 1.70 -1.50 2.10 -1.50 0.35 0 1 -0.45 1.40 -1 0.40 -0.55 1.05 -1 1.50 -1 0.45 0 1.10 -0.45 1.50 -1 0.40 -0.55 1.05 -1 1.50 -1 0.45 0 1.10 -0.45 1.50 -1 0.40 -0.55 1.05 -1 1.50 -1 0.45 0 1.10 -0.45 1.50 -1 0.40 -0.55 1.05 -1 1.50 -1 0.45 0 1.10 -0.45 1.50 -1 0.40 -0.55 1.05 -1 1.50 -1 0.45 0 1.10 -0.45 1.50 -1 0.40 -0.55 1.05 -1 1.40 -1 0.40 0 1.35 -0.65 2.10 -1.50 0.75 -0.80 1.65 -1.50 2 -1.50 0.35 0 1.25 -0.65 2 -1.50 0.75 -0.80 1.70 -1.50 2.10 -1.50 0.35 0 1 -0.45 1.40 -1 0.40 -0.55 1.05 -1 1.40 -1 0.40 0 1.35 -0.65 2.10 -1.50 0.75 -0.80 1.70 -1.50 2.10 -1.50 0.35 0 1 -0.45 1.40 -1 0.40 -0.55 1.05 -1 1.40 -1 0.40 0 1.35 -0.65 2.10 -1.50 0.75 -0.80 1.65 -1.50 2 -1.50 0.35 0 1.25 -0.65 2 -1.50 0.75 -0.80 1.70 -1.50 2.10 -1.50 0.35 0 1 -0.45 1.40 -1 0.40 -0.55 1.05 -1 1.40 -1 0.40 0 1.35 -0.65 2.10 -1.50 0.75 -0.80 1.70 -1.50 2.10 -1.50 0.35 0 1 -0.45 1.40 -1 0.40 -0.55 1.05 -1 1.40 -1 0.40 0 1.35 -0.65 2.10 -1.50 0.75 -0.80 1.65 -1.50 2 -1.50 0.35 0 1.25 -0.65 2 -1.50 0.75 -0.80 1.70 -1.50 2.10 -1.50 0.35 0 1 -0.45 1.40 -1 0.40 -0.55 1.05 -1 1.40 -1 0.40 0 1.35 -0.65 2.10 -1.50 0.75 -0.80 1.70 -1.50 2.10 -1.50 0.35 0 1 -0.45 1.40 -1 0.40 -0.55 1.05 -1 1.40 -1 0.40 0 1.35 -0.65 2.10 -1.50 0.75 -0.80 1.65 -1.50 2 -1.50 0.35 0 1.25 -0.65 2 -1.50 0.75 -0.80 1.70 -1.50 2.10 -1.50 0.35 0 1 -0.45 1.40 -1 0.40 -0.55 1.05 -1 1.40 -1 0.40 0 1.35 -0.65 2.10 -1.50 0.75 -0.80 1.70 -1.50 2.10 -1.50 0.35 0 1 -0.45 1.40 -1 0.40 -0.55 1.05 -1 1.40 -1 0.40 0 1.35 -0.65 2.10 -1.50 0.75 -0.80 1.65 -1.50 2 -1.50 0.35 0 1.25 -0.65 2 -1.50 0.75 -0.80 1.70 -1.50 2.10 -1.50 0.35 0 1 -0.45 1.40 -1 0.40 -0.55 1.05 -1 1.40 -1 0.40 0 1.35 -0.65 2.10 -1.50 0.75 -0.80 1.65 -1.50 2 -1.50 0.35 0 1.25 -0.65 2 -1.50 0.75 -0.80 1.70 -1.50 2.10 -1.50 0.35 0 1 -0.45 1.40 -1 0.40 -0.55 1.05 -1 1.50 -1 0.45 0 1.10 -0.45 1.50 -1 0.45 -0.65 1.30 -1 2.35 -1 l1.65 0 0 138.25 0 138.25 -156.25 0 -156.25 0 0 -63.25z"/>
 </g>
 <g fill="#003366">
  <path d="M301.50 179 c0 -0.30 -3 -0.50 -8 -0.50 -5 0 -8 -0.20 -8 -0.50 0 -0.30 -3 -0.50 -8 -0.50 -5 0 -8 -0.20 -8 -0.50 0 -0.30 -1.65 -0.50 -4 -0.50 -2.35 0 -4 -0.20 -4 -0.50 0 -0.25 -1.10 -0.50 -2.50 -0.50 -1.35 0 -2.50 -0.20 -2.50 -0.50 0 -0.25 -1.10 -0.50 -2.50 -0.50 -1.35 0 -2.50 -0.20 -2.50 -0.50 0 -0.30 -1.35 -0.50 -3 -0.50 -1.65 0 -3 -0.20 -3 -0.50 0 -0.25 -1.10 -0.50 -2.50 -0.50 -1.35 0 -2.50 -0.20 -2.50 -0.50 0 -0.25 -0.90 -0.50 -2 -0.50 -1.10 0 -2 -0.20 -2 -0.50 0 -0.25 -0.65 -0.50 -1.50 -0.50 -0.80 0 -1.50 -0.20 -1.50 -0.50 0 -0.25 -0.65 -0.50 -1.50 -0.50 -0.80 0 -1.50 -0.20 -1.50 -0.50 0 -0.25 -0.65 -0.50 -1.50 -0.50 -0.80 0 -1.50 -0.20 -1.50 -0.50 0 -0.25 -0.65 -0.50 -1.50 -0.50 -0.80 0 -1.50 -0.20 -1.50 -0.50 0 -0.25 -0.65 -0.50 -1.50 -0.50 -0.80 0 -1.50 -0.20 -1.50 -0.50 0 -0.25 -0.65 -0.50 -1.50 -0.50 -0.80 0 -1.50 -0.20 -1.50 -0.50 0 -0.25 -0.45 -0.50 -1 -0.50 -0.55 0 -1 -0.20 -1 -0.50 0 -0.25 -0.65 -0.50 -1.50 -0.50 -0.80 0 -1.50 -0.20 -1.50 -0.50 0 -0.25 -0.65 -0.50 -1.50 -0.50 -0.80 0 -1.50 -0.20 -1.50 -0.50 0 -0.25 -0.45 -0.50 -1 -0.50 -0.55 0 -1 -0.20 -1 -0.50 0 -0.25 -0.65 -0.50 -1.50 -0.50 -0.80 0 -1.50 -0.20 -1.50 -0.50 0 -0.25 -0.45 -0.50 -1 -0.50 -0.55 0 -1 -0.20 -1 -0.50 0 -0.25 -0.45 -0.50 -1 -0.50 -0.55 0 -1 -0.20 -1 -0.50 0 -0.25 -0.45 -0.50 -1 -0.50 -0.55 0 -1 -0.20 -1 -0.50 0 -0.25 -0.45 -0.50 -1 -0.50 -0.55 0 -1 -0.20 -1 -0.50 0 -0.25 -0.45 -0.50 -1 -0.50 -0.55 0 -1 -0.20 -1 -0.50 0 -0.25 -0.45 -0.50 -1 -0.50 -0.55 0 -1 -0.20 -1 -0.50 0 -0.25 -0.65 -0.50 -1.50 -0.50 -0.80 0 -1.50 -0.20 -1.50 -0.50 0 -0.25 -0.45 -0.50 -1 -0.50 -0.55 0 -1 -0.20 -1 -0.50 0 -0.25 -0.45 -0.50 -1 -0.50 -0.55 0 -1 -0.20 -1 -0.50 0 -0.25 -0.45 -0.50 -1 -0.50 -0.55 0 -1 -0.20 -1 -0.50 0 -0.25 -0.45 -0.50 -1 -0.50 -0.55 0 -1 -0.20 -1 -0.50 0 -0.25 -0.45 -0.50 -1 -0.50 -0.55 0 -1 -0.20 -1 -0.50 0 -0.25 -0.45 -0.50 -1 -0.50 -0.55 0 -1 -0.20 -1 -0.50 0 -0.25 -0.45 -0.50 -1 -0.50 -0.55 0 -1 -0.20 -1 -0.50 0 -0.25 -0.45 -0.50 -1 -0.50 -0.55 0 -1 -0.20 -1 -0.50 0 -0.25 -0.40 -0.50 -0.90 -0.50 -0.50 0 -1.20 -0.45 -1.60 -1 -0.40 -0.55 -1.10 -1 -1.60 -1 -0.50 0 -0.90 -0.20 -0.90 -0.50 0 -0.25 -0.45 -0.50 -1 -0.50 -0.55 0 -1 -0.20 -1 -0.50 0 -0.25 -0.45 -0.50 -1 -0.50 -0.55 0 -1 -0.20 -1 -0.50 0 -0.25 -0.45 -0.50 -1 -0.50 -0.55 0 -1 -0.20 -1 -0.50 0 -0.25 -0.45 -0.50 -1 -0.50 -0.55 0 -1 -0.20 -1 -0.50 0 -0.25 -0.45 -0.50 -1 -0.50 -0.55 0 -1 -0.20 -1 -0.50 0 -0.25 -0.40 -0.50 -0.90 -0.50 -0.50 0 -1.20 -0.45 -1.60 -1 -0.40 -0.55 -1.10 -1 -1.60 -1 -0.50 0 -0.90 -0.20 -0.90 -0.50 0 -0.25 -0.40 -0.50 -0.90 -0.50 -0.50 0 -1.20 -0.45 -1.60 -1 -0.40 -0.55 -1.10 -1 -1.60 -1 -0.50 0 -0.90 -0.20 -0.90 -0.50 0 -0.25 -0.40 -0.50 -0.90 -0.50 -0.50 0 -1.20 -0.45 -1.60 -1 -0.40 -0.55 -1.10 -1 -1.60 -1 -0.50 0 -0.90 -0.20 -0.90 -0.50 0 -0.25 -0.40 -0.50 -0.90 -0.50 -0.50 0 -1.20 -0.45 -1.60 -1 -0.40 -0.55 -1.10 -1 -1.60 -1 -0.50 0 -0.90 -0.20 -0.90 -0.50 0 -0.25 -0.40 -0.50 -0.90 -0.50 -0.50 0 -1.20 -0.45 -1.60 -1 -0.40 -0.55 -1.10 -1 -1.60 -1 -0.50 0 -0.90 -0.20 -0.90 -0.50 0 -0.25 -0.40 -0.50 -0.90 -0.50 -0.50 0 -1.20 -0.45 -1.60 -1 -0.40 -0.55 -1.05 -1 -1.50 -1 -0.45 0 -1.10 -0.45 -1.50 -1 -0.40 -0.55 -1.05 -1 -1.50 -1 -0.45 0 -1.10 -0.45 -1.50 -1 -0.40 -0.55 -1.05 -1 -1.50 -1 -0.45 0 -1.10 -0.45 -1.50 -1 -0.40 -0.55 -1.05 -1 -1.40 -1 -0.40 0 -1.35 -0.65 -2.10 -1.50 -0.75 -0.80 -1.70 -1.50 -2.10 -1.50 -0.35 0 -1 -0.45 -1.40 -1 -0.40 -0.55 -1.05 -1 -1.50 -1 -0.45 0 -1.10 -0.45 -1.50 -1 -0.40 -0.55 -1.05 -1 -1.50 -1 -0.45 0 -1.10 -0.45 -1.50 -1 -0.40 -0.55 -1.05 -1 -1.50 -1 -0.45 0 -1.10 -0.45 -1.50 -1 -0.40 -0.55 -1.05 -1 -1.40 -1 -0.40 0 -1.35 -0.65 -2.10 -1.50 -0.75 -0.80 -1.65 -1.50 -2 -1.50 -0.35 0 -1.25 -0.65 -2 -1.50 -0.75 -0.80 -1.70 -1.50 -2.10 -1.50 -0.35 0 -1 -0.45 -1.40 -1 -0.40 -0.55 -1.05 -1 -1.40 -1 -0.40 0 -1.35 -0.65 -2.10 -1.50 -0.75 -0.80 -1.70 -1.50 -2.10 -1.50 -0.35 0 -1 -0.45 -1.40 -1 -0.40 -0.55 -1.05 -1 -1.40 -1 -0.40 0 -1.35 -0.65 -2.10 -1.50 -0.75 -0.80 -1.65 -1.50 -2 -1.50 -0.35 0 -1.25 -0.65 -2 -1.50 -0.75 -0.80 -1.70 -1.50 -2.10 -1.50 -0.35 0 -1 -0.45 -1.40 -1 -0.40 -0.55 -1.05 -1 -1.40 -1 -0.40 0 -1.35 -0.65 -2.10 -1.50 -0.75 -0.80 -1.70 -1.50 -2.10 -1.50 -0.35 0 -1 -0.45 -1.40 -1 -0.40 -0.55 -1.05 -1 -1.40 -1 -0.40 0 -1.35 -0.65 -2.10 -1.50 -0.75 -0.80 -1.65 -1.50 -2 -1.50 -0.35 0 -1.25 -0.65 -2 -1.50 -0.75 -0.80 -1.70 -1.50 -2.10 -1.50 -0.35 0 -1 -0.45 -1.40 -1 -0.40 -0.55 -1.05 -1 -1.40 -1 -0.40 0 -1.35 -0.65 -2.10 -1.50 -0.75 -0.80 -1.70 -1.50 -2.10 -1.50 -0.35 0 -1 -0.45 -1.40 -1 -0.40 -0.55 -1.05 -1 -1.40 -1 -0.40 0 -1.35 -0.65 -2.10 -1.50 -0.75 -0.80 -1.65 -1.50 -2 -1.50 -0.35 0 -1.25 -0.65 -2 -1.50 -0.75 -0.80 -1.70 -1.50 -2.10 -1.50 -0.35 0 -1 -0.45 -1.40 -1 -0.40 -0.55 -1.05 -1 -1.40 -1 -0.40 0 -1.35 -0.65 -2.10 -1.50 -0.75 -0.80 -1.70 -1.50 -2.10 -1.50 -0.35 0 -1 -0.45 -1.40 -1 -0.40 -0.55 -1.05 -1 -1.40 -1 -0.40 0 -1.35 -0.65 -2.10 -1.50 -0.75 -0.80 -1.65 -1.50 -2 -1.50 -0.35 0 -1.25 -0.65 -2 -1.50 -0.75 -0.80 -1.70 -1.50 -2.10 -1.50 -0.35 0 -1 -0.45 -1.40 -1 -0.40 -0.55 -1.05 -1 -1.40 -1 -0.40 0 -1.35 -0.65 -2.10 -1.50 -0.75 -0.80 -1.70 -1.50 -2.10 -1.50 -0.35 0 -1 -0.45 -1.40 -1 -0.40 -0.55 -1.05 -1 -1.40 -1 -0.40 0 -1.35 -0.65 -2.10 -1.50 -0.75 -0.80 -1.65 -1.50 -2 -1.50 -0.35 0 -1.25 -0.65 -2 -1.50 -0.75 -0.80 -1.70 -1.50 -2.10 -1.50 -0.35 0 -1 -0.45 -1.40 -1 -0.40 -0.55 -1.05 -1 -1.40 -1 -0.40 0 -1.35 -0.65 -2.10 -1.50 -0.75 -0.80 -1.65 -1.50 -1.95 -1.50 -0.40 0 -0.55 -3.95 -0.55 -13.25 l0 -13.25 156.25 0 156.25 0 0 89.75 0 89.75 -5.50 0 c-3.35 0 -5.50 -0.20 -5.50 -0.50z"/>
  <path d="M326.50 89.75 l0 -89.75 156.25 0 156.25 0 0 12.95 c0 7.15 -0.15 13.30 -0.30 13.75 -0.15 0.45 -0.65 0.80 -1.05 0.80 -0.40 0 -1.40 0.70 -2.15 1.50 -0.75 0.85 -1.65 1.50 -2 1.50 -0.35 0 -1.25 0.70 -2 1.50 -0.75 0.85 -1.70 1.50 -2.10 1.50 -0.35 0 -1 0.45 -1.40 1 -0.40 0.55 -1.05 1 -1.40 1 -0.40 0 -1.35 0.70 -2.10 1.50 -0.75 0.85 -1.70 1.50 -2.10 1.50 -0.35 0 -1 0.45 -1.40 1 -0.40 0.55 -1.05 1 -1.40 1 -0.40 0 -1.35 0.70 -2.10 1.50 -0.75 0.85 -1.65 1.50 -2 1.50 -0.35 0 -1.25 0.70 -2 1.50 -0.75 0.85 -1.70 1.50 -2.10 1.50 -0.35 0 -1 0.45 -1.40 1 -0.40 0.55 -1.05 1 -1.40 1 -0.40 0 -1.35 0.70 -2.10 1.50 -0.75 0.85 -1.70 1.50 -2.10 1.50 -0.35 0 -1 0.45 -1.40 1 -0.40 0.55 -1.05 1 -1.40 1 -0.40 0 -1.35 0.70 -2.10 1.50 -0.75 0.85 -1.65 1.50 -2 1.50 -0.35 0 -1.25 0.70 -2 1.50 -0.75 0.85 -1.70 1.50 -2.10 1.50 -0.35 0 -1 0.45 -1.40 1 -0.40 0.55 -1.05 1 -1.40 1 -0.40 0 -1.35 0.70 -2.10 1.50 -0.75 0.85 -1.70 1.50 -2.10 1.50 -0.35 0 -1 0.45 -1.40 1 -0.40 0.55 -1.05 1 -1.40 1 -0.40 0 -1.35 0.70 -2.10 1.50 -0.75 0.85 -1.65 1.50 -2 1.50 -0.35 0 -1.25 0.70 -2 1.50 -0.75 0.85 -1.70 1.50 -2.10 1.50 -0.35 0 -1 0.45 -1.40 1 -0.40 0.55 -1.05 1 -1.40 1 -0.40 0 -1.35 0.70 -2.10 1.50 -0.75 0.85 -1.70 1.50 -2.10 1.50 -0.35 0 -1 0.45 -1.40 1 -0.40 0.55 -1.05 1 -1.40 1 -0.40 0 -1.35 0.70 -2.10 1.50 -0.75 0.85 -1.65 1.50 -2 1.50 -0.35 0 -1.25 0.70 -2 1.50 -0.75 0.85 -1.70 1.50 -2.10 1.50 -0.35 0 -1 0.45 -1.40 1 -0.40 0.55 -1.05 1 -1.40 1 -0.40 0 -1.35 0.70 -2.10 1.50 -0.75 0.85 -1.70 1.50 -2.10 1.50 -0.35 0 -1 0.45 -1.40 1 -0.40 0.55 -1.05 1 -1.40 1 -0.40 0 -1.35 0.70 -2.10 1.50 -0.75 0.85 -1.65 1.50 -2 1.50 -0.35 0 -1.25 0.70 -2 1.50 -0.75 0.85 -1.70 1.50 -2.10 1.50 -0.35 0 -1 0.45 -1.40 1 -0.40 0.55 -1.05 1 -1.40 1 -0.40 0 -1.35 0.70 -2.10 1.50 -0.75 0.85 -1.70 1.50 -2.10 1.50 -0.35 0 -1 0.45 -1.40 1 -0.40 0.55 -1.05 1 -1.50 1 -0.45 0 -1.10 0.45 -1.50 1 -0.40 0.55 -1.05 1 -1.50 1 -0.45 0 -1.10 0.45 -1.50 1 -0.40 0.55 -1.05 1 -1.50 1 -0.45 0 -1.10 0.45 -1.50 1 -0.40 0.55 -1.05 1 -1.40 1 -0.40 0 -1.35 0.70 -2.10 1.50 -0.75 0.85 -1.70 1.50 -2.10 1.50 -0.35 0 -1 0.45 -1.40 1 -0.40 0.55 -1.05 1 -1.50 1 -0.45 0 -1.10 0.45 -1.50 1 -0.40 0.55 -1.05 1 -1.50 1 -0.45 0 -1.10 0.45 -1.50 1 -0.40 0.55 -1.10 1 -1.60 1 -0.50 0 -0.90 0.25 -0.90 0.50 0 0.30 -0.40 0.50 -0.90 0.50 -0.50 0 -1.20 0.45 -1.60 1 -0.40 0.55 -1.10 1 -1.60 1 -0.50 0 -0.90 0.25 -0.90 0.50 0 0.30 -0.40 0.50 -0.90 0.50 -0.50 0 -1.20 0.45 -1.60 1 -0.40 0.55 -1.10 1 -1.60 1 -0.50 0 -0.90 0.25 -0.90 0.50 0 0.30 -0.40 0.50 -0.90 0.50 -0.50 0 -1.20 0.45 -1.60 1 -0.40 0.55 -1.05 1 -1.50 1 -0.45 0 -1.10 0.45 -1.50 1 -0.40 0.55 -1.10 1 -1.60 1 -0.50 0 -0.90 0.25 -0.90 0.50 0 0.30 -0.40 0.50 -0.90 0.50 -0.50 0 -1.20 0.45 -1.60 1 -0.40 0.55 -1.10 1 -1.60 1 -0.50 0 -0.90 0.25 -0.90 0.50 0 0.30 -0.45 0.50 -1 0.50 -0.55 0 -1 0.25 -1 0.50 0 0.30 -0.45 0.50 -1 0.50 -0.55 0 -1 0.25 -1 0.50 0 0.30 -0.45 0.50 -1 0.50 -0.55 0 -1 0.25 -1 0.50 0 0.30 -0.40 0.50 -0.90 0.50 -0.50 0 -1.20 0.45 -1.60 1 -0.40 0.55 -1.10 1 -1.60 1 -0.50 0 -0.90 0.25 -0.90 0.50 0 0.30 -0.45 0.50 -1 0.50 -0.55 0 -1 0.25 -1 0.50 0 0.30 -0.45 0.50 -1 0.50 -0.55 0 -1 0.25 -1 0.50 0 0.30 -0.45 0.50 -1 0.50 -0.55 0 -1 0.25 -1 0.50 0 0.30 -0.45 0.50 -1 0.50 -0.55 0 -1 0.25 -1 0.50 0 0.30 -0.45 0.50 -1 0.50 -0.55 0 -1 0.25 -1 0.50 0 0.30 -0.40 0.50 -0.90 0.50 -0.50 0 -1.20 0.45 -1.60 1 -0.40 0.55 -1.10 1 -1.60 1 -0.50 0 -0.90 0.25 -0.90 0.50 0 0.30 -0.45 0.50 -1 0.50 -0.55 0 -1 0.25 -1 0.50 0 0.30 -0.65 0.50 -1.50 0.50 -0.80 0 -1.50 0.25 -1.50 0.50 0 0.30 -0.45 0.50 -1 0.50 -0.55 0 -1 0.25 -1 0.50 0 0.30 -0.45 0.50 -1 0.50 -0.55 0 -1 0.25 -1 0.50 0 0.30 -0.45 0.50 -1 0.50 -0.55 0 -1 0.25 -1 0.50 0 0.30 -0.45 0.50 -1 0.50 -0.55 0 -1 0.25 -1 0.50 0 0.30 -0.45 0.50 -1 0.50 -0.55 0 -1 0.25 -1 0.50 0 0.30 -0.45 0.50 -1 0.50 -0.55 0 -1 0.25 -1 0.50 0 0.30 -0.65 0.50 -1.50 0.50 -0.80 0 -1.50 0.25 -1.50 0.50 0 0.30 -0.45 0.50 -1 0.50 -0.55 0 -1 0.25 -1 0.50 0 0.30 -0.45 0.50 -1 0.50 -0.55 0 -1 0.25 -1 0.50 0 0.30 -0.45 0.50 -1 0.50 -0.55 0 -1 0.25 -1 0.50 0 0.30 -0.45 0.50 -1 0.50 -0.55 0 -1 0.25 -1 0.50 0 0.30 -0.65 0.50 -1.50 0.50 -0.80 0 -1.50 0.25 -1.50 0.50 0 0.30 -0.65 0.50 -1.50 0.50 -0.80 0 -1.50 0.25 -1.50 0.50 0 0.30 -0.65 0.50 -1.50 0.50 -0.80 0 -1.50 0.25 -1.50 0.50 0 0.30 -0.65 0.50 -1.50 0.50 -0.80 0 -1.50 0.25 -1.50 0.50 0 0.30 -0.65 0.50 -1.50 0.50 -0.80 0 -1.50 0.25 -1.50 0.50 0 0.30 -0.65 0.50 -1.50 0.50 -0.80 0 -1.50 0.25 -1.50 0.50 0 0.30 -0.45 0.50 -1 0.50 -0.55 0 -1 0.25 -1 0.50 0 0.30 -0.65 0.50 -1.50 0.50 -0.80 0 -1.50 0.25 -1.50 0.50 0 0.30 -0.65 0.50 -1.50 0.50 -0.80 0 -1.50 0.25 -1.50 0.50 0 0.30 -1.10 0.50 -2.50 0.50 -1.35 0 -2.50 0.25 -2.50 0.50 0 0.30 -1.10 0.50 -2.50 0.50 -1.35 0 -2.50 0.25 -2.50 0.50 0 0.30 -1.10 0.50 -2.50 0.50 -1.35 0 -2.50 0.25 -2.50 0.50 0 0.30 -1.10 0.50 -2.50 0.50 -1.35 0 -2.50 0.25 -2.50 0.50 0 0.30 -1.10 0.50 -2.50 0.50 -1.35 0 -2.50 0.25 -2.50 0.50 0 0.30 -1.65 0.50 -4 0.50 -2.35 0 -4 0.20 -4 0.50 0 0.30 -3 0.50 -8 0.50 -5 0 -8 0.20 -8 0.50 0 0.30 -3.15 0.50 -8.50 0.50 -5.35 0 -8.50 0.20 -8.50 0.50 0 0.30 -2.15 0.50 -5.50 0.50 l-5.50 0 0 -89.75z"/>
 </g>
 <g fill="#ffffff">
  <path d="M311 257.50 c0 -62.15 0 -62.50 -1 -62.50 -0.55 0 -1 -0.20 -1 -0.50 0 -0.30 -3 -0.50 -8 -0.50 -5 0 -8 -0.20 -8 -0.50 0 -0.30 -3.15 -0.50 -8.50 -0.50 -5.35 0 -8.50 -0.20 -8.50 -0.50 0 -0.30 -2.35 -0.50 -6 -0.50 -3.65 0 -6 -0.20 -6 -0.50 0 -0.25 -1.10 -0.50 -2.50 -0.50 -1.35 0 -2.50 -0.20 -2.50 -0.50 0 -0.30 -1.35 -0.50 -3 -0.50 -1.65 0 -3 -0.20 -3 -0.50 0 -0.25 -1.10 -0.50 -2.50 -0.50 -1.35 0 -2.50 -0.20 -2.50 -0.50 0 -0.25 -1.10 -0.50 -2.50 -0.50 -1.35 0 -2.50 -0.20 -2.50 -0.50 0 -0.25 -1.10 -0.50 -2.50 -0.50 -1.35 0 -2.50 -0.20 -2.50 -0.50 0 -0.25 -0.90 -0.50 -2 -0.50 -1.10 0 -2 -0.20 -2 -0.50 0 -0.25 -0.65 -0.50 -1.50 -0.50 -0.80 0 -1.50 -0.20 -1.50 -0.50 0 -0.25 -0.65 -0.50 -1.50 -0.50 -0.80 0 -1.50 -0.20 -1.50 -0.50 0 -0.25 -0.65 -0.50 -1.50 -0.50 -0.80 0 -1.50 -0.20 -1.50 -0.50 0 -0.25 -0.65 -0.50 -1.50 -0.50 -0.80 0 -1.50 -0.20 -1.50 -0.50 0 -0.25 -0.65 -0.50 -1.50 -0.50 -0.80 0 -1.50 -0.20 -1.50 -0.50 0 -0.25 -0.45 -0.50 -1 -0.50 -0.55 0 -1 -0.20 -1 -0.50 0 -0.25 -0.65 -0.50 -1.50 -0.50 -0.80 0 -1.50 -0.20 -1.50 -0.50 0 -0.25 -0.65 -0.50 -1.50 -0.50 -0.80 0 -1.50 -0.20 -1.50 -0.50 0 -0.25 -0.65 -0.50 -1.50 -0.50 -0.80 0 -1.50 -0.20 -1.50 -0.50 0 -0.25 -0.65 -0.50 -1.50 -0.50 -0.80 0 -1.50 -0.20 -1.50 -0.50 0 -0.25 -0.45 -0.50 -1 -0.50 -0.55 0 -1 -0.20 -1 -0.50 0 -0.25 -0.45 -0.50 -1 -0.50 -0.55 0 -1 -0.20 -1 -0.50 0 -0.25 -0.45 -0.50 -1 -0.50 -0.55 0 -1 -0.20 -1 -0.50 0 -0.25 -0.65 -0.50 -1.50 -0.50 -0.80 0 -1.50 -0.20 -1.50 -0.50 0 -0.25 -0.45 -0.50 -1 -0.50 -0.55 0 -1 -0.20 -1 -0.50 0 -0.25 -0.45 -0.50 -1 -0.50 -0.55 0 -1 -0.20 -1 -0.50 0 -0.25 -0.45 -0.50 -1 -0.50 -0.55 0 -1 -0.20 -1 -0.50 0 -0.25 -0.45 -0.50 -1 -0.50 -0.55 0 -1 -0.20 -1 -0.50 0 -0.25 -0.45 -0.50 -1 -0.50 -0.55 0 -1 -0.20 -1 -0.50 0 -0.25 -0.45 -0.50 -1 -0.50 -0.55 0 -1 -0.20 -1 -0.50 0 -0.25 -0.65 -0.50 -1.50 -0.50 -0.80 0 -1.50 -0.20 -1.50 -0.50 0 -0.25 -0.45 -0.50 -1 -0.50 -0.55 0 -1 -0.20 -1 -0.50 0 -0.25 -0.45 -0.50 -1 -0.50 -0.55 0 -1 -0.20 -1 -0.50 0 -0.25 -0.45 -0.50 -1 -0.50 -0.55 0 -1 -0.20 -1 -0.50 0 -0.25 -0.40 -0.50 -0.90 -0.50 -0.50 0 -1.20 -0.45 -1.60 -1 -0.40 -0.55 -1.10 -1 -1.60 -1 -0.50 0 -0.90 -0.20 -0.90 -0.50 0 -0.25 -0.45 -0.50 -1 -0.50 -0.55 0 -1 -0.20 -1 -0.50 0 -0.25 -0.45 -0.50 -1 -0.50 -0.55 0 -1 -0.20 -1 -0.50 0 -0.25 -0.45 -0.50 -1 -0.50 -0.55 0 -1 -0.20 -1 -0.50 0 -0.25 -0.45 -0.50 -1 -0.50 -0.55 0 -1 -0.20 -1 -0.50 0 -0.25 -0.45 -0.50 -1 -0.50 -0.55 0 -1 -0.20 -1 -0.50 0 -0.25 -0.40 -0.50 -0.90 -0.50 -0.50 0 -1.20 -0.45 -1.60 -1 -0.40 -0.55 -1.10 -1 -1.60 -1 -0.50 0 -0.90 -0.20 -0.90 -0.50 0 -0.25 -0.45 -0.50 -1 -0.50 -0.55 0 -1 -0.20 -1 -0.50 0 -0.25 -0.45 -0.50 -1 -0.50 -0.55 0 -1 -0.20 -1 -0.50 0 -0.25 -0.45 -0.50 -1 -0.50 -0.55 0 -1 -0.20 -1 -0.50 0 -0.25 -0.40 -0.50 -0.90 -0.50 -0.50 0 -1.20 -0.45 -1.60 -1 -0.40 -0.55 -1.05 -1 -1.50 -1 -0.45 0 -1.10 -0.45 -1.50 -1 -0.40 -0.55 -1.10 -1 -1.60 -1 -0.50 0 -0.90 -0.20 -0.90 -0.50 0 -0.25 -0.40 -0.50 -0.90 -0.50 -0.50 0 -1.20 -0.45 -1.60 -1 -0.40 -0.55 -1.10 -1 -1.60 -1 -0.50 0 -0.90 -0.20 -0.90 -0.50 0 -0.25 -0.40 -0.50 -0.90 -0.50 -0.50 0 -1.20 -0.45 -1.60 -1 -0.40 -0.55 -1.10 -1 -1.60 -1 -0.50 0 -0.90 -0.20 -0.90 -0.50 0 -0.25 -0.40 -0.50 -0.90 -0.50 -0.50 0 -1.20 -0.45 -1.60 -1 -0.40 -0.55 -1.10 -1 -1.60 -1 -0.50 0 -0.90 -0.20 -0.90 -0.50 0 -0.25 -0.40 -0.50 -0.90 -0.50 -0.50 0 -1.20 -0.45 -1.60 -1 -0.40 -0.55 -1.05 -1 -1.50 -1 -0.45 0 -1.10 -0.45 -1.50 -1 -0.40 -0.55 -1.05 -1 -1.40 -1 -0.40 0 -1.35 -0.65 -2.10 -1.50 -0.75 -0.80 -1.70 -1.50 -2.10 -1.50 -0.35 0 -1 -0.45 -1.40 -1 -0.40 -0.55 -1.05 -1 -1.50 -1 -0.45 0 -1.10 -0.45 -1.50 -1 -0.40 -0.55 -1.05 -1 -1.50 -1 -0.45 0 -1.10 -0.45 -1.50 -1 -0.40 -0.55 -1.05 -1 -1.50 -1 -0.45 0 -1.10 -0.45 -1.50 -1 -0.40 -0.55 -1.05 -1 -1.50 -1 -0.45 0 -1.10 -0.45 -1.50 -1 -0.40 -0.55 -1.05 -1 -1.40 -1 -0.40 0 -1.35 -0.65 -2.10 -1.50 -0.75 -0.80 -1.70 -1.50 -2.10 -1.50 -0.35 0 -1 -0.45 -1.40 -1 -0.40 -0.55 -1.05 -1 -1.40 -1 -0.40 0 -1.35 -0.65 -2.10 -1.50 -0.75 -0.80 -1.70 -1.50 -2.10 -1.50 -0.35 0 -1 -0.45 -1.40 -1 -0.40 -0.55 -1.05 -1 -1.40 -1 -0.40 0 -1.35 -0.65 -2.10 -1.50 -0.75 -0.80 -1.65 -1.50 -2 -1.50 -0.35 0 -1.25 -0.65 -2 -1.50 -0.75 -0.80 -1.70 -1.50 -2.10 -1.50 -0.35 0 -1 -0.45 -1.40 -1 -0.40 -0.55 -1.05 -1 -1.40 -1 -0.40 0 -1.35 -0.65 -2.10 -1.50 -0.75 -0.80 -1.70 -1.50 -2.10 -1.50 -0.35 0 -1 -0.45 -1.40 -1 -0.40 -0.55 -1.05 -1 -1.40 -1 -0.40 0 -1.35 -0.65 -2.10 -1.50 -0.75 -0.80 -1.65 -1.50 -2 -1.50 -0.35 0 -1.25 -0.65 -2 -1.50 -0.75 -0.80 -1.70 -1.50 -2.10 -1.50 -0.35 0 -1 -0.45 -1.40 -1 -0.40 -0.55 -1.05 -1 -1.40 -1 -0.40 0 -1.35 -0.65 -2.10 -1.50 -0.75 -0.80 -1.65 -1.50 -2 -1.50 -0.35 0 -1.25 -0.65 -2 -1.50 -0.75 -0.80 -1.70 -1.50 -2.10 -1.50 -0.35 0 -1 -0.45 -1.40 -1 -0.40 -0.55 -1.05 -1 -1.40 -1 -0.40 0 -1.35 -0.65 -2.10 -1.50 -0.75 -0.80 -1.70 -1.50 -2.10 -1.50 -0.35 0 -1 -0.45 -1.40 -1 -0.40 -0.55 -1.05 -1 -1.40 -1 -0.40 0 -1.35 -0.65 -2.10 -1.50 -0.75 -0.80 -1.65 -1.50 -2 -1.50 -0.35 0 -1.25 -0.65 -2 -1.50 -0.75 -0.80 -1.70 -1.50 -2.10 -1.50 -0.35 0 -1 -0.45 -1.40 -1 -0.40 -0.55 -1.05 -1 -1.40 -1 -0.40 0 -1.35 -0.65 -2.10 -1.50 -0.75 -0.80 -1.70 -1.50 -2.10 -1.50 -0.35 0 -1 -0.45 -1.40 -1 -0.40 -0.55 -1.05 -1 -1.40 -1 -0.40 0 -1.35 -0.65 -2.10 -1.50 -0.75 -0.80 -1.65 -1.50 -2 -1.50 -0.35 0 -1.25 -0.65 -2 -1.50 -0.75 -0.80 -1.70 -1.50 -2.10 -1.50 -0.35 0 -1 -0.45 -1.40 -1 -0.40 -0.55 -1.05 -1 -1.40 -1 -0.40 0 -1.35 -0.65 -2.10 -1.50 -0.75 -0.80 -1.70 -1.50 -2.10 -1.50 -0.35 0 -1 -0.45 -1.40 -1 -0.40 -0.55 -1.10 -1 -1.60 -1 -0.50 0 -0.90 -0.20 -0.90 -0.50 0 -0.25 -0.45 -0.50 -1 -0.50 -0.95 0 -1 -0.35 -1 -10.50 0 -6.65 0.20 -10.50 0.50 -10.50 0.30 0 0.50 0.25 0.50 0.50 0 0.30 0.35 0.50 0.80 0.50 0.45 0 1.45 0.70 2.20 1.50 0.75 0.85 1.70 1.50 2.10 1.50 0.35 0 1 0.45 1.40 1 0.40 0.55 1.05 1 1.40 1 0.40 0 1.35 0.70 2.10 1.50 0.75 0.85 1.65 1.50 2 1.50 0.35 0 1.25 0.70 2 1.50 0.75 0.85 1.70 1.50 2.10 1.50 0.35 0 1 0.45 1.40 1 0.40 0.55 1.05 1 1.40 1 0.40 0 1.35 0.70 2.10 1.50 0.75 0.85 1.70 1.50 2.10 1.50 0.35 0 1 0.45 1.40 1 0.40 0.55 1.05 1 1.40 1 0.40 0 1.35 0.70 2.10 1.50 0.75 0.85 1.65 1.50 2 1.50 0.35 0 1.25 0.70 2 1.50 0.75 0.85 1.70 1.50 2.10 1.50 0.35 0 1 0.45 1.40 1 0.40 0.55 1.05 1 1.40 1 0.40 0 1.35 0.70 2.10 1.50 0.75 0.85 1.70 1.50 2.10 1.50 0.35 0 1 0.45 1.40 1 0.40 0.55 1.05 1 1.40 1 0.40 0 1.35 0.70 2.10 1.50 0.75 0.85 1.65 1.50 2 1.50 0.35 0 1.25 0.70 2 1.50 0.75 0.85 1.70 1.50 2.10 1.50 0.35 0 1 0.45 1.40 1 0.40 0.55 1.05 1 1.40 1 0.40 0 1.35 0.70 2.10 1.50 0.75 0.85 1.70 1.50 2.10 1.50 0.35 0 1 0.45 1.40 1 0.40 0.55 1.05 1 1.40 1 0.40 0 1.35 0.70 2.10 1.50 0.75 0.85 1.65 1.50 2 1.50 0.35 0 1.25 0.70 2 1.50 0.75 0.85 1.70 1.50 2.10 1.50 0.35 0 1 0.45 1.40 1 0.40 0.55 1.05 1 1.40 1 0.40 0 1.35 0.70 2.10 1.50 0.75 0.85 1.70 1.50 2.10 1.50 0.35 0 1 0.45 1.40 1 0.40 0.55 1.05 1 1.40 1 0.40 0 1.35 0.70 2.10 1.50 0.75 0.85 1.65 1.50 2 1.50 0.35 0 1.25 0.70 2 1.50 0.75 0.85 1.70 1.50 2.10 1.50 0.35 0 1 0.45 1.40 1 0.40 0.55 1.05 1 1.40 1 0.40 0 1.35 0.70 2.10 1.50 0.75 0.85 1.70 1.50 2.10 1.50 0.35 0 1 0.45 1.40 1 0.40 0.55 1.05 1 1.40 1 0.40 0 1.35 0.70 2.10 1.50 0.75 0.85 1.65 1.50 2 1.50 0.35 0 1.25 0.70 2 1.50 0.75 0.85 1.70 1.50 2.10 1.50 0.35 0 1 0.45 1.40 1 0.40 0.55 1.05 1 1.50 1 0.45 0 1.10 0.45 1.50 1 0.40 0.55 1.05 1 1.50 1 0.45 0 1.10 0.45 1.50 1 0.40 0.55 1.05 1 1.50 1 0.45 0 1.10 0.45 1.50 1 0.40 0.55 1.05 1 1.40 1 0.40 0 1.35 0.70 2.10 1.50 0.75 0.85 1.70 1.50 2.10 1.50 0.35 0 1 0.45 1.40 1 0.40 0.55 1.05 1 1.50 1 0.45 0 1.10 0.45 1.50 1 0.40 0.55 1.05 1 1.50 1 0.45 0 1.10 0.45 1.50 1 0.40 0.55 1.05 1 1.50 1 0.45 0 1.10 0.45 1.50 1 0.40 0.55 1.10 1 1.60 1 0.50 0 0.90 0.25 0.90 0.50 0 0.30 0.40 0.50 0.90 0.50 0.50 0 1.20 0.45 1.60 1 0.40 0.55 1.10 1 1.60 1 0.50 0 0.90 0.25 0.90 0.50 0 0.30 0.40 0.50 0.90 0.50 0.50 0 1.20 0.45 1.60 1 0.40 0.55 1.10 1 1.60 1 0.50 0 0.90 0.25 0.90 0.50 0 0.30 0.40 0.50 0.90 0.50 0.50 0 1.20 0.45 1.60 1 0.40 0.55 1.10 1 1.60 1 0.50 0 0.90 0.25 0.90 0.50 0 0.30 0.40 0.50 0.90 0.50 0.50 0 1.20 0.45 1.60 1 0.40 0.55 1.10 1 1.60 1 0.50 0 0.90 0.25 0.90 0.50 0 0.30 0.40 0.50 0.90 0.50 0.50 0 1.20 0.45 1.60 1 0.40 0.55 1.10 1 1.60 1 0.50 0 0.90 0.25 0.90 0.50 0 0.30 0.45 0.50 1 0.50 0.55 0 1 0.25 1 0.50 0 0.30 0.45 0.50 1 0.50 0.55 0 1 0.25 1 0.50 0 0.30 0.45 0.50 1 0.50 0.55 0 1 0.25 1 0.50 0 0.30 0.45 0.50 1 0.50 0.55 0 1 0.25 1 0.50 0 0.30 0.45 0.50 1 0.50 0.55 0 1 0.25 1 0.50 0 0.30 0.40 0.50 0.90 0.50 0.50 0 1.20 0.45 1.60 1 0.40 0.55 1.10 1 1.60 1 0.50 0 0.90 0.25 0.90 0.50 0 0.30 0.45 0.50 1 0.50 0.55 0 1 0.25 1 0.50 0 0.30 0.45 0.50 1 0.50 0.55 0 1 0.25 1 0.50 0 0.30 0.45 0.50 1 0.50 0.55 0 1 0.25 1 0.50 0 0.30 0.45 0.50 1 0.50 0.55 0 1 0.25 1 0.50 0 0.30 0.45 0.50 1 0.50 0.55 0 1 0.25 1 0.50 0 0.30 0.45 0.50 1 0.50 0.55 0 1 0.25 1 0.50 0 0.30 0.45 0.50 1 0.50 0.55 0 1 0.25 1 0.50 0 0.30 0.45 0.50 1 0.50 0.55 0 1 0.25 1 0.50 0 0.30 0.70 0.50 1.50 0.50 0.85 0 1.50 0.25 1.50 0.50 0 0.30 0.45 0.50 1 0.50 0.55 0 1 0.25 1 0.50 0 0.30 0.45 0.50 1 0.50 0.55 0 1 0.25 1 0.50 0 0.30 0.45 0.50 1 0.50 0.55 0 1 0.25 1 0.50 0 0.30 0.45 0.50 1 0.50 0.55 0 1 0.25 1 0.50 0 0.30 0.45 0.50 1 0.50 0.55 0 1 0.25 1 0.50 0 0.30 0.45 0.50 1 0.50 0.55 0 1 0.25 1 0.50 0 0.30 0.70 0.50 1.50 0.50 0.85 0 1.50 0.25 1.50 0.50 0 0.30 0.45 0.50 1 0.50 0.55 0 1 0.25 1 0.50 0 0.30 0.70 0.50 1.50 0.50 0.85 0 1.50 0.25 1.50 0.50 0 0.30 0.70 0.50 1.50 0.50 0.85 0 1.50 0.25 1.50 0.50 0 0.30 0.45 0.50 1 0.50 0.55 0 1 0.25 1 0.50 0 0.30 0.70 0.50 1.50 0.50 0.85 0 1.50 0.25 1.50 0.50 0 0.30 0.70 0.50 1.50 0.50 0.85 0 1.50 0.25 1.50 0.50 0 0.30 0.70 0.50 1.50 0.50 0.85 0 1.50 0.25 1.50 0.50 0 0.30 0.70 0.50 1.50 0.50 0.85 0 1.50 0.25 1.50 0.50 0 0.30 0.70 0.50 1.50 0.50 0.85 0 1.50 0.25 1.50 0.50 0 0.30 0.70 0.50 1.50 0.50 0.85 0 1.50 0.25 1.50 0.50 0 0.30 0.90 0.50 2 0.50 1.10 0 2 0.25 2 0.50 0 0.30 1.15 0.50 2.50 0.50 1.40 0 2.50 0.25 2.50 0.50 0 0.30 1.35 0.50 3 0.50 1.65 0 3 0.20 3 0.50 0 0.30 1.15 0.50 2.50 0.50 1.40 0 2.50 0.25 2.50 0.50 0 0.30 1.15 0.50 2.50 0.50 1.40 0 2.50 0.25 2.50 0.50 0 0.30 1.65 0.50 4 0.50 2.35 0 4 0.20 4 0.50 0 0.30 3 0.50 8 0.50 5 0 8 0.20 8 0.50 0 0.30 3 0.50 8 0.50 5 0 8 0.20 8 0.50 0 0.30 1.65 0.50 4 0.50 l4 0 0 -89 0 -89 8.50 0 8.50 0 0 89 0 89 4 0 c2.35 0 4 -0.20 4 -0.50 0 -0.30 3.15 -0.50 8.50 -0.50 5.35 0 8.50 -0.20 8.50 -0.50 0 -0.30 3 -0.50 8 -0.50 5 0 8 -0.20 8 -0.50 0 -0.30 1.65 -0.50 4 -0.50 2.35 0 4 -0.20 4 -0.50 0 -0.25 1.15 -0.50 2.50 -0.50 1.40 0 2.50 -0.20 2.50 -0.50 0 -0.25 1.15 -0.50 2.50 -0.50 1.40 0 2.50 -0.20 2.50 -0.50 0 -0.25 1.15 -0.50 2.50 -0.50 1.40 0 2.50 -0.20 2.50 -0.50 0 -0.25 1.15 -0.50 2.50 -0.50 1.40 0 2.50 -0.20 2.50 -0.50 0 -0.25 1.15 -0.50 2.50 -0.50 1.40 0 2.50 -0.20 2.50 -0.50 0 -0.25 0.70 -0.50 1.50 -0.50 0.85 0 1.50 -0.20 1.50 -0.50 0 -0.25 0.70 -0.50 1.50 -0.50 0.85 0 1.50 -0.20 1.50 -0.50 0 -0.25 0.45 -0.50 1 -0.50 0.55 0 1 -0.20 1 -0.50 0 -0.25 0.70 -0.50 1.50 -0.50 0.85 0 1.50 -0.20 1.50 -0.50 0 -0.25 0.70 -0.50 1.50 -0.50 0.85 0 1.50 -0.20 1.50 -0.50 0 -0.25 0.70 -0.50 1.50 -0.50 0.85 0 1.50 -0.20 1.50 -0.50 0 -0.25 0.70 -0.50 1.50 -0.50 0.85 0 1.50 -0.20 1.50 -0.50 0 -0.25 0.70 -0.50 1.50 -0.50 0.85 0 1.50 -0.20 1.50 -0.50 0 -0.25 0.70 -0.50 1.50 -0.50 0.85 0 1.50 -0.20 1.50 -0.50 0 -0.25 0.45 -0.50 1 -0.50 0.55 0 1 -0.20 1 -0.50 0 -0.25 0.45 -0.50 1 -0.50 0.55 0 1 -0.20 1 -0.50 0 -0.25 0.45 -0.50 1 -0.50 0.55 0 1 -0.20 1 -0.50 0 -0.25 0.45 -0.50 1 -0.50 0.55 0 1 -0.20 1 -0.50 0 -0.25 0.70 -0.50 1.50 -0.50 0.85 0 1.50 -0.20 1.50 -0.50 0 -0.25 0.45 -0.50 1 -0.50 0.55 0 1 -0.20 1 -0.50 0 -0.25 0.45 -0.50 1 -0.50 0.55 0 1 -0.20 1 -0.50 0 -0.25 0.45 -0.50 1 -0.50 0.55 0 1 -0.20 1 -0.50 0 -0.25 0.45 -0.50 1 -0.50 0.55 0 1 -0.20 1 -0.50 0 -0.25 0.45 -0.50 1 -0.50 0.55 0 1 -0.20 1 -0.50 0 -0.25 0.45 -0.50 1 -0.50 0.55 0 1 -0.20 1 -0.50 0 -0.25 0.70 -0.50 1.50 -0.50 0.85 0 1.50 -0.20 1.50 -0.50 0 -0.25 0.45 -0.50 1 -0.50 0.55 0 1 -0.20 1 -0.50 0 -0.25 0.40 -0.50 0.90 -0.50 0.50 0 1.20 -0.45 1.60 -1 0.40 -0.55 1.10 -1 1.60 -1 0.50 0 0.90 -0.20 0.90 -0.50 0 -0.25 0.45 -0.50 1 -0.50 0.55 0 1 -0.20 1 -0.50 0 -0.25 0.45 -0.50 1 -0.50 0.55 0 1 -0.20 1 -0.50 0 -0.25 0.45 -0.50 1 -0.50 0.55 0 1 -0.20 1 -0.50 0 -0.25 0.45 -0.50 1 -0.50 0.55 0 1 -0.20 1 -0.50 0 -0.25 0.45 -0.50 1 -0.50 0.55 0 1 -0.20 1 -0.50 0 -0.25 0.40 -0.50 0.90 -0.50 0.50 0 1.20 -0.45 1.60 -1 0.40 -0.55 1.10 -1 1.60 -1 0.50 0 0.90 -0.20 0.90 -0.50 0 -0.25 0.45 -0.50 1 -0.50 0.55 0 1 -0.20 1 -0.50 0 -0.25 0.45 -0.50 1 -0.50 0.55 0 1 -0.20 1 -0.50 0 -0.25 0.45 -0.50 1 -0.50 0.55 0 1 -0.20 1 -0.50 0 -0.25 0.40 -0.50 0.90 -0.50 0.50 0 1.20 -0.45 1.60 -1 0.40 -0.55 1.10 -1 1.60 -1 0.50 0 0.90 -0.20 0.90 -0.50 0 -0.25 0.40 -0.50 0.90 -0.50 0.50 0 1.20 -0.45 1.60 -1 0.40 -0.55 1.05 -1 1.50 -1 0.45 0 1.10 -0.45 1.50 -1 0.40 -0.55 1.10 -1 1.60 -1 0.50 0 0.90 -0.20 0.90 -0.50 0 -0.25 0.40 -0.50 0.90 -0.50 0.50 0 1.20 -0.45 1.60 -1 0.40 -0.55 1.10 -1 1.60 -1 0.50 0 0.90 -0.20 0.90 -0.50 0 -0.25 0.40 -0.50 0.90 -0.50 0.50 0 1.20 -0.45 1.60 -1 0.40 -0.55 1.10 -1 1.60 -1 0.50 0 0.90 -0.20 0.90 -0.50 0 -0.25 0.40 -0.50 0.90 -0.50 0.50 0 1.20 -0.45 1.60 -1 0.40 -0.55 1.05 -1 1.50 -1 0.45 0 1.10 -0.45 1.50 -1 0.40 -0.55 1.05 -1 1.50 -1 0.45 0 1.10 -0.45 1.50 -1 0.40 -0.55 1.05 -1 1.40 -1 0.40 0 1.35 -0.65 2.10 -1.50 0.75 -0.80 1.70 -1.50 2.10 -1.50 0.35 0 1 -0.45 1.40 -1 0.40 -0.55 1.05 -1 1.50 -1 0.45 0 1.10 -0.45 1.50 -1 0.40 -0.55 1.05 -1 1.50 -1 0.45 0 1.10 -0.45 1.50 -1 0.40 -0.55 1.05 -1 1.50 -1 0.45 0 1.10 -0.45 1.50 -1 0.40 -0.55 1.05 -1 1.40 -1 0.40 0 1.35 -0.65 2.10 -1.50 0.75 -0.80 1.70 -1.50 2.10 -1.50 0.35 0 1 -0.45 1.40 -1 0.40 -0.55 1.05 -1 1.40 -1 0.40 0 1.35 -0.65 2.10 -1.50 0.75 -0.80 1.65 -1.50 2 -1.50 0.35 0 1.25 -0.65 2 -1.50 0.75 -0.80 1.70 -1.50 2.10 -1.50 0.35 0 1 -0.45 1.40 -1 0.40 -0.55 1.05 -1 1.40 -1 0.40 0 1.35 -0.65 2.10 -1.50 0.75 -0.80 1.70 -1.50 2.10 -1.50 0.35 0 1 -0.45 1.40 -1 0.40 -0.55 1.05 -1 1.40 -1 0.40 0 1.35 -0.65 2.10 -1.50 0.75 -0.80 1.65 -1.50 2 -1.50 0.35 0 1.25 -0.65 2 -1.50 0.75 -0.80 1.70 -1.50 2.10 -1.50 0.35 0 1 -0.45 1.40 -1 0.40 -0.55 1.05 -1 1.40 -1 0.40 0 1.35 -0.65 2.10 -1.50 0.75 -0.80 1.70 -1.50 2.10 -1.50 0.35 0 1 -0.45 1.40 -1 0.40 -0.55 1.05 -1 1.40 -1 0.40 0 1.35 -0.65 2.10 -1.50 0.75 -0.80 1.65 -1.50 2 -1.50 0.35 0 1.25 -0.65 2 -1.50 0.75 -0.80 1.70 -1.50 2.10 -1.50 0.35 0 1 -0.45 1.40 -1 0.40 -0.55 1.05 -1 1.40 -1 0.40 0 1.35 -0.65 2.10 -1.50 0.75 -0.80 1.70 -1.50 2.10 -1.50 0.35 0 1 -0.45 1.40 -1 0.40 -0.55 1.05 -1 1.40 -1 0.40 0 1.35 -0.65 2.10 -1.50 0.75 -0.80 1.65 -1.50 2 -1.50 0.35 0 1.25 -0.65 2 -1.50 0.75 -0.80 1.70 -1.50 2.10 -1.50 0.35 0 1 -0.45 1.40 -1 0.40 -0.55 1.05 -1 1.40 -1 0.40 0 1.35 -0.65 2.10 -1.50 0.75 -0.80 1.70 -1.50 2.10 -1.50 0.35 0 1 -0.45 1.40 -1 0.40 -0.55 1.05 -1 1.40 -1 0.40 0 1.35 -0.65 2.10 -1.50 0.75 -0.80 1.65 -1.50 2 -1.50 0.35 0 1.25 -0.65 2 -1.50 0.75 -0.80 1.70 -1.50 2.10 -1.50 0.35 0 1 -0.45 1.40 -1 0.40 -0.55 1.05 -1 1.40 -1 0.40 0 1.35 -0.65 2.10 -1.50 0.75 -0.80 1.70 -1.50 2.10 -1.50 0.35 0 1 -0.45 1.40 -1 0.40 -0.55 1.05 -1 1.40 -1 0.40 0 1.35 -0.65 2.10 -1.50 0.75 -0.80 1.65 -1.50 2 -1.50 0.35 0 1.25 -0.65 2 -1.50 0.75 -0.80 1.70 -1.50 2.10 -1.50 0.35 0 1 -0.45 1.40 -1 0.40 -0.55 0.90 -1 1.10 -1 0.20 0 0.40 4.70 0.40 10.50 0 9.75 -0.05 10.50 -0.90 10.50 -0.50 0 -1.20 0.45 -1.60 1 -0.40 0.55 -1.05 1 -1.50 1 -0.45 0 -1.10 0.45 -1.50 1 -0.40 0.55 -1.05 1 -1.40 1 -0.40 0 -1.35 0.70 -2.10 1.50 -0.75 0.85 -1.65 1.50 -2 1.50 -0.35 0 -1.25 0.70 -2 1.50 -0.75 0.85 -1.70 1.50 -2.10 1.50 -0.35 0 -1 0.45 -1.40 1 -0.40 0.55 -1.05 1 -1.40 1 -0.40 0 -1.35 0.70 -2.10 1.50 -0.75 0.85 -1.65 1.50 -2 1.50 -0.35 0 -1.25 0.70 -2 1.50 -0.75 0.85 -1.70 1.50 -2.10 1.50 -0.35 0 -1 0.45 -1.40 1 -0.40 0.55 -1.05 1 -1.40 1 -0.40 0 -1.35 0.70 -2.10 1.50 -0.75 0.85 -1.70 1.50 -2.10 1.50 -0.35 0 -1 0.45 -1.40 1 -0.40 0.55 -1.05 1 -1.40 1 -0.40 0 -1.35 0.70 -2.10 1.50 -0.75 0.85 -1.65 1.50 -2 1.50 -0.35 0 -1.25 0.70 -2 1.50 -0.75 0.85 -1.70 1.50 -2.10 1.50 -0.35 0 -1 0.45 -1.40 1 -0.40 0.55 -1.05 1 -1.40 1 -0.40 0 -1.35 0.70 -2.10 1.50 -0.75 0.85 -1.70 1.50 -2.10 1.50 -0.35 0 -1 0.45 -1.40 1 -0.40 0.55 -1.05 1 -1.40 1 -0.40 0 -1.35 0.70 -2.10 1.50 -0.75 0.85 -1.65 1.50 -2 1.50 -0.35 0 -1.25 0.70 -2 1.50 -0.75 0.85 -1.70 1.50 -2.10 1.50 -0.35 0 -1 0.45 -1.40 1 -0.40 0.55 -1.05 1 -1.40 1 -0.40 0 -1.35 0.70 -2.10 1.50 -0.75 0.85 -1.70 1.50 -2.10 1.50 -0.35 0 -1 0.45 -1.40 1 -0.40 0.55 -1.05 1 -1.40 1 -0.40 0 -1.35 0.70 -2.10 1.50 -0.75 0.85 -1.65 1.50 -2 1.50 -0.35 0 -1.25 0.70 -2 1.50 -0.75 0.85 -1.70 1.50 -2.10 1.50 -0.35 0 -1 0.45 -1.40 1 -0.40 0.55 -1.05 1 -1.40 1 -0.40 0 -1.35 0.70 -2.10 1.50 -0.75 0.85 -1.70 1.50 -2.10 1.50 -0.35 0 -1 0.45 -1.40 1 -0.40 0.55 -1.05 1 -1.40 1 -0.40 0 -1.35 0.70 -2.10 1.50 -0.75 0.85 -1.65 1.50 -2 1.50 -0.35 0 -1.25 0.70 -2 1.50 -0.75 0.85 -1.70 1.50 -2.10 1.50 -0.35 0 -1 0.45 -1.40 1 -0.40 0.55 -1.05 1 -1.50 1 -0.45 0 -1.10 0.45 -1.50 1 -0.40 0.55 -1.05 1 -1.50 1 -0.45 0 -1.10 0.45 -1.50 1 -0.40 0.55 -1.05 1 -1.50 1 -0.45 0 -1.10 0.45 -1.50 1 -0.40 0.55 -1.05 1 -1.50 1 -0.45 0 -1.10 0.45 -1.50 1 -0.40 0.55 -1.05 1 -1.50 1 -0.45 0 -1.10 0.45 -1.50 1 -0.40 0.55 -1.05 1 -1.40 1 -0.40 0 -1.35 0.70 -2.10 1.50 -0.75 0.85 -1.70 1.50 -2.10 1.50 -0.35 0 -1 0.45 -1.40 1 -0.40 0.55 -1.10 1 -1.60 1 -0.50 0 -0.90 0.25 -0.90 0.50 0 0.30 -0.40 0.50 -0.90 0.50 -0.50 0 -1.20 0.45 -1.60 1 -0.40 0.55 -1.05 1 -1.50 1 -0.45 0 -1.10 0.45 -1.50 1 -0.40 0.55 -1.10 1 -1.60 1 -0.50 0 -0.90 0.25 -0.90 0.50 0 0.30 -0.40 0.50 -0.90 0.50 -0.50 0 -1.20 0.45 -1.60 1 -0.40 0.55 -1.10 1 -1.60 1 -0.50 0 -0.90 0.25 -0.90 0.50 0 0.30 -0.40 0.50 -0.90 0.50 -0.50 0 -1.20 0.45 -1.60 1 -0.40 0.55 -1.10 1 -1.60 1 -0.50 0 -0.90 0.25 -0.90 0.50 0 0.30 -0.40 0.50 -0.90 0.50 -0.50 0 -1.20 0.45 -1.60 1 -0.40 0.55 -1.10 1 -1.60 1 -0.50 0 -0.90 0.25 -0.90 0.50 0 0.30 -0.40 0.50 -0.90 0.50 -0.50 0 -1.20 0.45 -1.60 1 -0.40 0.55 -1.10 1 -1.60 1 -0.50 0 -0.90 0.25 -0.90 0.50 0 0.30 -0.45 0.50 -1 0.50 -0.55 0 -1 0.25 -1 0.50 0 0.30 -0.45 0.50 -1 0.50 -0.55 0 -1 0.25 -1 0.50 0 0.30 -0.45 0.50 -1 0.50 -0.55 0 -1 0.25 -1 0.50 0 0.30 -0.45 0.50 -1 0.50 -0.55 0 -1 0.25 -1 0.50 0 0.30 -0.45 0.50 -1 0.50 -0.55 0 -1 0.25 -1 0.50 0 0.30 -0.40 0.50 -0.90 0.50 -0.50 0 -1.20 0.45 -1.60 1 -0.40 0.55 -1.10 1 -1.60 1 -0.50 0 -0.90 0.25 -0.90 0.50 0 0.30 -0.45 0.50 -1 0.50 -0.55 0 -1 0.25 -1 0.50 0 0.30 -0.45 0.50 -1 0.50 -0.55 0 -1 0.25 -1 0.50 0 0.30 -0.45 0.50 -1 0.50 -0.55 0 -1 0.25 -1 0.50 0 0.30 -0.45 0.50 -1 0.50 -0.55 0 -1 0.25 -1 0.50 0 0.30 -0.45 0.50 -1 0.50 -0.55 0 -1 0.25 -1 0.50 0 0.30 -0.45 0.50 -1 0.50 -0.55 0 -1 0.25 -1 0.50 0 0.30 -0.45 0.50 -1 0.50 -0.55 0 -1 0.25 -1 0.50 0 0.30 -0.45 0.50 -1 0.50 -0.55 0 -1 0.25 -1 0.50 0 0.30 -0.45 0.50 -1 0.50 -0.55 0 -1 0.25 -1 0.50 0 0.30 -0.45 0.50 -1 0.50 -0.55 0 -1 0.25 -1 0.50 0 0.30 -0.65 0.50 -1.50 0.50 -0.80 0 -1.50 0.25 -1.50 0.50 0 0.30 -0.45 0.50 -1 0.50 -0.55 0 -1 0.25 -1 0.50 0 0.30 -0.45 0.50 -1 0.50 -0.55 0 -1 0.25 -1 0.50 0 0.30 -0.45 0.50 -1 0.50 -0.55 0 -1 0.25 -1 0.50 0 0.30 -0.45 0.50 -1 0.50 -0.55 0 -1 0.25 -1 0.50 0 0.30 -0.45 0.50 -1 0.50 -0.55 0 -1 0.25 -1 0.50 0 0.30 -0.45 0.50 -1 0.50 -0.55 0 -1 0.25 -1 0.50 0 0.30 -0.65 0.50 -1.50 0.50 -0.80 0 -1.50 0.25 -1.50 0.50 0 0.30 -0.45 0.50 -1 0.50 -0.55 0 -1 0.25 -1 0.50 0 0.30 -0.65 0.50 -1.50 0.50 -0.80 0 -1.50 0.25 -1.50 0.50 0 0.30 -0.65 0.50 -1.50 0.50 -0.80 0 -1.50 0.25 -1.50 0.50 0 0.30 -0.65 0.50 -1.50 0.50 -0.80 0 -1.50 0.25 -1.50 0.50 0 0.30 -0.65 0.50 -1.50 0.50 -0.80 0 -1.50 0.25 -1.50 0.50 0 0.30 -0.65 0.50 -1.50 0.50 -0.80 0 -1.50 0.25 -1.50 0.50 0 0.30 -0.65 0.50 -1.50 0.50 -0.80 0 -1.50 0.25 -1.50 0.50 0 0.30 -0.45 0.50 -1 0.50 -0.55 0 -1 0.25 -1 0.50 0 0.30 -0.65 0.50 -1.50 0.50 -0.80 0 -1.50 0.25 -1.50 0.50 0 0.30 -0.65 0.50 -1.50 0.50 -0.80 0 -1.50 0.25 -1.50 0.50 0 0.30 -1.10 0.50 -2.50 0.50 -1.35 0 -2.50 0.25 -2.50 0.50 0 0.30 -1.10 0.50 -2.50 0.50 -1.35 0 -2.50 0.25 -2.50 0.50 0 0.30 -1.10 0.50 -2.50 0.50 -1.35 0 -2.50 0.25 -2.50 0.50 0 0.30 -1.10 0.50 -2.50 0.50 -1.35 0 -2.50 0.25 -2.50 0.50 0 0.30 -1.10 0.50 -2.50 0.50 -1.35 0 -2.50 0.25 -2.50 0.50 0 0.30 -1.10 0.50 -2.50 0.50 -1.35 0 -2.50 0.25 -2.50 0.50 0 0.30 -2.50 0.50 -6.50 0.50 -4 0 -6.50 0.20 -6.50 0.50 0 0.30 -3 0.50 -8 0.50 -5 0 -8 0.20 -8 0.50 0 0.30 -3 0.50 -8 0.50 -5 0 -8 0.20 -8 0.50 0 0.30 -0.65 0.50 -1.50 0.50 l-1.50 0 0 62.50 0 62.50 -8.50 0 -8.50 0 0 -62.50z"/>
 </g>
</svg>