<svg version="1.1" id="Layer_1" xmlns="http://www.w3.org/2000/svg" xmlns:xlink="http://www.w3.org/1999/xlink" x="0px" y="0px"
	 width="100%" viewBox="0 0 474 474" enable-background="new 0 0 474 474" xml:space="preserve">
<path fill="#E6E7E9" opacity="1.000000" stroke="none" 
	d="
M1.000000,6.000000 
	C1.000000,5.555555 1.000000,5.111111 1.413816,4.272161 
	C3.952647,3.584731 6.077594,3.035919 8.202684,3.035364 
	C161.171265,2.995371 314.139832,3.015303 467.108368,2.916922 
	C471.510742,2.914091 473.110321,3.848527 473.106262,8.657538 
	C472.976898,161.626022 472.979980,314.594604 473.096222,467.563141 
	C473.099670,472.100128 471.661621,473.111023 467.385254,473.088715 
	C435.892578,472.924286 404.398651,473.000000 372.905121,473.000000 
	C251.763336,473.000031 130.621536,473.000427 9.479750,472.998810 
	C3.008307,472.998718 3.002710,472.990753 3.001096,466.428772 
	C2.997448,451.598480 3.062516,436.767578 2.911998,421.938812 
	C2.895225,420.286255 1.666606,418.645966 0.999995,417.000000 
	C1.000000,374.645782 1.000000,332.291534 1.387258,289.360321 
	C2.182994,286.775818 2.947453,284.768524 2.948770,282.760742 
	C3.007867,192.652084 3.000051,102.543396 2.998820,12.434707 
	C2.998802,11.102347 3.226363,9.704502 2.892499,8.459269 
	C2.645144,7.536696 1.657735,6.812543 1.000000,6.000000 
M144.500000,430.942230 
	C237.555542,430.942230 330.611084,430.942230 423.408142,430.942230 
	C425.730377,423.044403 419.375488,402.058838 414.134949,391.832855 
	C399.916504,364.088196 377.864258,344.014526 350.751434,329.581696 
	C311.535645,308.706116 269.474579,300.487152 225.128830,302.809662 
	C198.645950,304.196594 173.000916,309.229340 148.491074,319.147949 
	C114.773628,332.792664 85.780174,352.681885 66.825172,384.796417 
	C59.489555,397.224762 54.780014,410.631104 52.973389,425.019897 
	C52.418945,429.435699 53.679096,431.106323 58.531513,431.066864 
	C86.852814,430.836670 115.176872,430.946838 144.500000,430.942230 
M330.250549,179.253952 
	C327.632904,162.334991 321.377411,146.957962 310.731598,133.470764 
	C288.321960,105.079933 259.196686,92.099457 223.378052,98.426048 
	C192.048721,103.959694 170.025314,123.292847 156.554245,151.576172 
	C144.520569,176.841583 142.988770,203.371124 151.856857,230.158325 
	C160.692780,256.848267 177.215347,276.940002 202.958878,288.997772 
	C234.548691,303.793762 272.611877,298.128479 298.183075,274.164917 
	C325.451324,248.611008 335.689087,216.930237 330.250549,179.253952 
z"/>
<path fill="#EBECEE" opacity="1.000000" stroke="none" 
	d="
M0.999995,417.468658 
	C1.666606,418.645966 2.895225,420.286255 2.911998,421.938812 
	C3.062516,436.767578 2.997448,451.598480 3.001096,466.428772 
	C3.002710,472.990753 3.008307,472.998718 9.479750,472.998810 
	C130.621536,473.000427 251.763336,473.000031 372.905121,473.000000 
	C404.398651,473.000000 435.892578,472.924286 467.385254,473.088715 
	C471.661621,473.111023 473.099670,472.100128 473.096222,467.563141 
	C472.979980,314.594604 472.976898,161.626022 473.106262,8.657538 
	C473.110321,3.848527 471.510742,2.914091 467.108368,2.916922 
	C314.139832,3.015303 161.171265,2.995371 8.202684,3.035364 
	C6.077594,3.035919 3.952647,3.584731 1.413816,3.938828 
	C1.000000,3.000295 1.000000,2.000590 1.000000,1.000664 
	C158.953079,1.000443 316.906158,1.000443 474.929626,1.000443 
	C474.929626,158.906433 474.929626,316.812897 474.929626,474.859680 
	C317.000092,474.859680 159.000061,474.859680 1.000000,474.859680 
	C1.000000,455.926208 1.000000,436.931763 0.999995,417.468658 
z"/>
<path fill="#EBECEE" opacity="1.000000" stroke="none" 
	d="
M1.000000,6.468657 
	C1.657735,6.812543 2.645144,7.536696 2.892499,8.459269 
	C3.226363,9.704502 2.998802,11.102347 2.998820,12.434707 
	C3.000051,102.543396 3.007867,192.652084 2.948770,282.760742 
	C2.947453,284.768524 2.182994,286.775818 1.387258,288.891663 
	C1.000000,194.979111 1.000000,100.958206 1.000000,6.468657 
z"/>
<path fill="#AFB4B8" opacity="1.000000" stroke="none" 
	d="
M144.000000,430.942139 
	C115.176872,430.946838 86.852814,430.836670 58.531513,431.066864 
	C53.679096,431.106323 52.418945,429.435699 52.973389,425.019897 
	C54.780014,410.631104 59.489555,397.224762 66.825172,384.796417 
	C85.780174,352.681885 114.773628,332.792664 148.491074,319.147949 
	C173.000916,309.229340 198.645950,304.196594 225.128830,302.809662 
	C269.474579,300.487152 311.535645,308.706116 350.751434,329.581696 
	C377.864258,344.014526 399.916504,364.088196 414.134949,391.832855 
	C419.375488,402.058838 425.730377,423.044403 423.408142,430.942230 
	C330.611084,430.942230 237.555542,430.942230 144.000000,430.942139 
z"/>
<path fill="#AFB4B8" opacity="1.000000" stroke="none" 
	d="
M330.375854,179.670868 
	C335.689087,216.930237 325.451324,248.611008 298.183075,274.164917 
	C272.611877,298.128479 234.548691,303.793762 202.958878,288.997772 
	C177.215347,276.940002 160.692780,256.848267 151.856857,230.158325 
	C142.988770,203.371124 144.520569,176.841583 156.554245,151.576172 
	C170.025314,123.292847 192.048721,103.959694 223.378052,98.426048 
	C259.196686,92.099457 288.321960,105.079933 310.731598,133.470764 
	C321.377411,146.957962 327.632904,162.334991 330.375854,179.670868 
z"/>
</svg>